<mxfile host="app.diagrams.net" modified="2024-03-04T20:05:52.922Z" agent="Mozilla/5.0 (Windows NT 6.1) AppleWebKit/537.36 (KHTML, like Gecko) Chrome/97.0.4692.99 Safari/537.36" etag="mMiXi1vRB4WW0NICnB-r" version="24.0.1" type="device">
  <diagram name="Страница — 1" id="H1kZtW8s0V4Lf_mmikYA">
    <mxGraphModel dx="2218" dy="2384" grid="1" gridSize="10" guides="1" tooltips="1" connect="1" arrows="1" fold="1" page="1" pageScale="1" pageWidth="827" pageHeight="1169" math="0" shadow="0">
      <root>
        <mxCell id="0" />
        <mxCell id="1" parent="0" />
        <mxCell id="LvrsAmiecv5zWet7mf8W-21" value="" style="edgeStyle=orthogonalEdgeStyle;rounded=1;orthogonalLoop=1;jettySize=auto;html=1;shape=flexArrow;fillColor=#d5e8d4;gradientColor=#97d077;strokeColor=#82b366;gradientDirection=north;" edge="1" parent="1" source="LvrsAmiecv5zWet7mf8W-1" target="LvrsAmiecv5zWet7mf8W-3">
          <mxGeometry relative="1" as="geometry" />
        </mxCell>
        <mxCell id="LvrsAmiecv5zWet7mf8W-1" value="&lt;font style=&quot;vertical-align: inherit;&quot;&gt;&lt;font style=&quot;vertical-align: inherit; font-size: 32px;&quot;&gt;Заказ&lt;/font&gt;&lt;/font&gt;" style="rounded=1;whiteSpace=wrap;html=1;fillColor=#f5f5f5;strokeColor=#666666;shadow=1;gradientColor=#b3b3b3;" vertex="1" parent="1">
          <mxGeometry x="330" y="90" width="120" height="60" as="geometry" />
        </mxCell>
        <mxCell id="LvrsAmiecv5zWet7mf8W-20" value="" style="edgeStyle=orthogonalEdgeStyle;rounded=1;orthogonalLoop=1;jettySize=auto;html=1;shape=flexArrow;fillColor=#d5e8d4;gradientColor=#97d077;strokeColor=#82b366;gradientDirection=north;" edge="1" parent="1" source="LvrsAmiecv5zWet7mf8W-3" target="LvrsAmiecv5zWet7mf8W-9">
          <mxGeometry relative="1" as="geometry" />
        </mxCell>
        <mxCell id="LvrsAmiecv5zWet7mf8W-3" value="&lt;h1 style=&quot;font-size: 23px;&quot;&gt;&lt;font style=&quot;vertical-align: inherit; font-size: 23px;&quot;&gt;&lt;font style=&quot;vertical-align: inherit; font-size: 23px;&quot;&gt;В обработке&lt;/font&gt;&lt;/font&gt;&lt;/h1&gt;" style="rounded=1;whiteSpace=wrap;html=1;fillColor=#dae8fc;strokeColor=#6c8ebf;fontStyle=0;fontSize=23;shadow=1;verticalAlign=middle;arcSize=15;" vertex="1" parent="1">
          <mxGeometry x="300" y="200" width="180" height="50" as="geometry" />
        </mxCell>
        <mxCell id="LvrsAmiecv5zWet7mf8W-24" value="" style="edgeStyle=orthogonalEdgeStyle;rounded=1;orthogonalLoop=1;jettySize=auto;html=1;shape=flexArrow;fillColor=#d5e8d4;strokeColor=#82b366;" edge="1" parent="1" source="LvrsAmiecv5zWet7mf8W-9" target="LvrsAmiecv5zWet7mf8W-23">
          <mxGeometry relative="1" as="geometry" />
        </mxCell>
        <mxCell id="LvrsAmiecv5zWet7mf8W-9" value="&lt;h1 style=&quot;font-size: 23px;&quot;&gt;Оформлен&lt;/h1&gt;" style="rounded=1;whiteSpace=wrap;html=1;fillColor=#dae8fc;strokeColor=#6c8ebf;shadow=1;fontSize=23;" vertex="1" parent="1">
          <mxGeometry x="325" y="300" width="130" height="60" as="geometry" />
        </mxCell>
        <mxCell id="LvrsAmiecv5zWet7mf8W-16" value="&lt;h1&gt;СТАТУСНАЯ МОДЕЛЬ ЗАКАЗА&lt;/h1&gt;" style="text;html=1;align=center;verticalAlign=middle;whiteSpace=wrap;rounded=0;fillColor=#fff2cc;strokeColor=#d6b656;gradientColor=#ffd966;shadow=1;" vertex="1" parent="1">
          <mxGeometry x="185" y="10" width="410" height="30" as="geometry" />
        </mxCell>
        <mxCell id="LvrsAmiecv5zWet7mf8W-26" value="" style="edgeStyle=orthogonalEdgeStyle;rounded=1;orthogonalLoop=1;jettySize=auto;html=1;shape=flexArrow;fillColor=#d5e8d4;strokeColor=#82b366;" edge="1" parent="1" source="LvrsAmiecv5zWet7mf8W-23" target="LvrsAmiecv5zWet7mf8W-25">
          <mxGeometry relative="1" as="geometry" />
        </mxCell>
        <mxCell id="LvrsAmiecv5zWet7mf8W-23" value="&lt;h1 style=&quot;font-size: 23px;&quot;&gt;Оплата&lt;/h1&gt;" style="rounded=1;whiteSpace=wrap;html=1;fillColor=#dae8fc;strokeColor=#6c8ebf;shadow=1;" vertex="1" parent="1">
          <mxGeometry x="330" y="410" width="120" height="60" as="geometry" />
        </mxCell>
        <mxCell id="LvrsAmiecv5zWet7mf8W-30" value="" style="edgeStyle=orthogonalEdgeStyle;rounded=1;orthogonalLoop=1;jettySize=auto;html=1;shape=flexArrow;fillColor=#d5e8d4;strokeColor=#82b366;" edge="1" parent="1" source="LvrsAmiecv5zWet7mf8W-25" target="LvrsAmiecv5zWet7mf8W-29">
          <mxGeometry relative="1" as="geometry" />
        </mxCell>
        <mxCell id="LvrsAmiecv5zWet7mf8W-25" value="&lt;h1 style=&quot;font-size: 23px;&quot;&gt;В сборке&lt;/h1&gt;" style="rounded=1;whiteSpace=wrap;html=1;fillColor=#dae8fc;strokeColor=#6c8ebf;shadow=1;" vertex="1" parent="1">
          <mxGeometry x="330" y="520" width="120" height="60" as="geometry" />
        </mxCell>
        <mxCell id="LvrsAmiecv5zWet7mf8W-32" value="" style="edgeStyle=orthogonalEdgeStyle;rounded=1;orthogonalLoop=1;jettySize=auto;html=1;shape=flexArrow;fillColor=#d5e8d4;strokeColor=#82b366;" edge="1" parent="1" source="LvrsAmiecv5zWet7mf8W-29" target="LvrsAmiecv5zWet7mf8W-31">
          <mxGeometry relative="1" as="geometry" />
        </mxCell>
        <mxCell id="LvrsAmiecv5zWet7mf8W-29" value="&lt;h1 style=&quot;font-size: 23px;&quot;&gt;Передан в доставку&lt;/h1&gt;" style="whiteSpace=wrap;html=1;fillColor=#dae8fc;strokeColor=#6c8ebf;rounded=1;shadow=1;" vertex="1" parent="1">
          <mxGeometry x="300" y="630" width="180" height="60" as="geometry" />
        </mxCell>
        <mxCell id="LvrsAmiecv5zWet7mf8W-34" value="" style="edgeStyle=orthogonalEdgeStyle;rounded=1;orthogonalLoop=1;jettySize=auto;html=1;shape=flexArrow;fillColor=#d5e8d4;strokeColor=#82b366;" edge="1" parent="1" source="LvrsAmiecv5zWet7mf8W-31" target="LvrsAmiecv5zWet7mf8W-33">
          <mxGeometry relative="1" as="geometry" />
        </mxCell>
        <mxCell id="LvrsAmiecv5zWet7mf8W-31" value="&lt;h1 style=&quot;font-size: 23px;&quot;&gt;Ожидает выдачи&lt;/h1&gt;" style="whiteSpace=wrap;html=1;fillColor=#dae8fc;strokeColor=#6c8ebf;rounded=1;shadow=1;" vertex="1" parent="1">
          <mxGeometry x="305" y="740" width="170" height="60" as="geometry" />
        </mxCell>
        <mxCell id="LvrsAmiecv5zWet7mf8W-36" value="" style="edgeStyle=orthogonalEdgeStyle;rounded=1;orthogonalLoop=1;jettySize=auto;html=1;shape=flexArrow;fillColor=#d5e8d4;gradientColor=#97d077;strokeColor=#82b366;" edge="1" parent="1" source="LvrsAmiecv5zWet7mf8W-33" target="LvrsAmiecv5zWet7mf8W-35">
          <mxGeometry relative="1" as="geometry" />
        </mxCell>
        <mxCell id="LvrsAmiecv5zWet7mf8W-33" value="&lt;h1 style=&quot;font-size: 23px;&quot;&gt;Доставлен&lt;/h1&gt;" style="whiteSpace=wrap;html=1;fillColor=#60a917;strokeColor=#2D7600;rounded=1;shadow=1;fontColor=#000000;" vertex="1" parent="1">
          <mxGeometry x="320" y="850" width="140" height="60" as="geometry" />
        </mxCell>
        <mxCell id="LvrsAmiecv5zWet7mf8W-35" value="&lt;h1 style=&quot;font-size: 23px;&quot;&gt;Возврат&lt;/h1&gt;" style="whiteSpace=wrap;html=1;fillColor=#f8cecc;strokeColor=#b85450;rounded=1;shadow=1;gradientColor=#ea6b66;" vertex="1" parent="1">
          <mxGeometry x="330" y="960" width="120" height="60" as="geometry" />
        </mxCell>
        <mxCell id="LvrsAmiecv5zWet7mf8W-37" value="&lt;h1 style=&quot;font-size: 23px;&quot;&gt;Отмена&lt;/h1&gt;" style="rounded=1;whiteSpace=wrap;html=1;fillColor=#f8cecc;strokeColor=#b85450;shadow=1;gradientColor=#ea6b66;" vertex="1" parent="1">
          <mxGeometry x="690" y="525" width="120" height="60" as="geometry" />
        </mxCell>
        <mxCell id="LvrsAmiecv5zWet7mf8W-39" value="" style="shape=flexArrow;endArrow=classic;html=1;rounded=1;width=5.185185185185185;endSize=6.488888888888888;endWidth=5.0480109739369;fillColor=#fad9d5;strokeColor=#ae4132;" edge="1" parent="1">
          <mxGeometry width="50" height="50" relative="1" as="geometry">
            <mxPoint x="490" y="770" as="sourcePoint" />
            <mxPoint x="670" y="590" as="targetPoint" />
          </mxGeometry>
        </mxCell>
        <mxCell id="LvrsAmiecv5zWet7mf8W-40" value="" style="shape=flexArrow;endArrow=classic;html=1;rounded=1;width=5.185185185185185;endSize=6.488888888888888;endWidth=5.0480109739369;fillColor=#fad9d5;strokeColor=#ae4132;" edge="1" parent="1">
          <mxGeometry width="50" height="50" relative="1" as="geometry">
            <mxPoint x="490" y="660" as="sourcePoint" />
            <mxPoint x="660" y="570" as="targetPoint" />
          </mxGeometry>
        </mxCell>
        <mxCell id="LvrsAmiecv5zWet7mf8W-41" value="" style="shape=flexArrow;endArrow=classic;html=1;rounded=1;width=5.185185185185185;endSize=6.488888888888888;endWidth=5.0480109739369;fillColor=#fad9d5;strokeColor=#ae4132;" edge="1" parent="1">
          <mxGeometry width="50" height="50" relative="1" as="geometry">
            <mxPoint x="460" y="550" as="sourcePoint" />
            <mxPoint x="650" y="550" as="targetPoint" />
          </mxGeometry>
        </mxCell>
        <mxCell id="LvrsAmiecv5zWet7mf8W-42" value="" style="shape=flexArrow;endArrow=classic;html=1;rounded=1;width=5.185185185185185;endSize=6.488888888888888;endWidth=5.0480109739369;fillColor=#fad9d5;strokeColor=#ae4132;" edge="1" parent="1">
          <mxGeometry width="50" height="50" relative="1" as="geometry">
            <mxPoint x="460" y="440" as="sourcePoint" />
            <mxPoint x="660" y="530" as="targetPoint" />
          </mxGeometry>
        </mxCell>
        <mxCell id="LvrsAmiecv5zWet7mf8W-43" value="" style="shape=flexArrow;endArrow=classic;html=1;rounded=1;width=5.185185185185185;endSize=6.488888888888888;endWidth=5.0480109739369;fillColor=#fad9d5;strokeColor=#ae4132;" edge="1" parent="1">
          <mxGeometry width="50" height="50" relative="1" as="geometry">
            <mxPoint x="460" y="340" as="sourcePoint" />
            <mxPoint x="670" y="510" as="targetPoint" />
          </mxGeometry>
        </mxCell>
        <mxCell id="LvrsAmiecv5zWet7mf8W-44" value="" style="shape=flexArrow;endArrow=classic;html=1;rounded=1;width=5.185185185185185;endSize=6.488888888888888;endWidth=5.0480109739369;fillColor=#fad9d5;strokeColor=#ae4132;" edge="1" parent="1">
          <mxGeometry width="50" height="50" relative="1" as="geometry">
            <mxPoint x="490" y="230" as="sourcePoint" />
            <mxPoint x="690" y="480" as="targetPoint" />
          </mxGeometry>
        </mxCell>
      </root>
    </mxGraphModel>
  </diagram>
</mxfile>
